<svg xmlns="http://www.w3.org/2000/svg" data-name="Layer 1" viewBox="0 0 32 32"><path fill="#231f20" d="M27.45,13.31a1.05,1.05,0,0,0-.86-.44h-2.1a.73.73,0,0,0-.73.72v2.12a.73.73,0,0,0,.73.72h4a.61.61,0,0,0,.49-.95Zm-2.72,2.15V13.84h1.86a.08.08,0,0,1,.07,0l1.14,1.58Z"/><path fill="#231f20" d="M31.77,16.64l-3.26-4.56a1.62,1.62,0,0,0-1.31-.68h-4V10.1a.48.48,0,0,0-.49-.48H21.29a1.23,1.23,0,0,0-1.22,1.1l-.54,5.13H18.38a2,2,0,0,0-.79.17l-.85.37a.92.92,0,0,1-.39.09H4.23a.43.43,0,0,0-.19,0L.89,17.89a.48.48,0,0,0-.29.44v2.26A.48.48,0,0,0,.82,21a.5.5,0,0,0,.27.08.43.43,0,0,0,.19,0l3-1.33v1a1.24,1.24,0,0,0,1.23,1.24H7.32c0,.1,0,.21,0,.32a2.36,2.36,0,1,0,4.71,0c0-.11,0-.22,0-.32H24.31c0,.1,0,.21,0,.32a2.36,2.36,0,1,0,4.71,0c0-.11,0-.22,0-.32h2.16a.86.86,0,0,0,.86-.86V17.36A1.23,1.23,0,0,0,31.77,16.64Zm-22.12,7a1.39,1.39,0,1,1,1.26-2,1.31,1.31,0,0,1,.13.59A1.39,1.39,0,0,1,9.65,23.62Zm12.54-2.68H11.62l0-.05-.15-.2-.08-.08a1.85,1.85,0,0,0-.14-.14l-.1-.08L11,20.27l-.11-.06a.65.65,0,0,0-.16-.09l-.12-.06L10.39,20l-.11,0-.21-.05-.1,0-.32,0-.31,0-.11,0L9,20l-.12,0-.17.06-.12.06-.16.08-.11.08a.71.71,0,0,0-.14.1l-.11.08a.8.8,0,0,0-.13.13l-.09.09a1.67,1.67,0,0,0-.12.16l-.07.09H5.54a.26.26,0,0,1-.26-.27v-1H22.19Zm0-9v6.78H4.35a.65.65,0,0,0-.19,0L1.57,19.85v-1.2l2.76-1.2h12a1.92,1.92,0,0,0,.78-.17l.86-.37a.89.89,0,0,1,.39-.09h1.15a1,1,0,0,0,1-.86L21,10.82a.27.27,0,0,1,.26-.23h.9Zm4.46,11.73a1.39,1.39,0,0,1,0-2.78l.19,0a1.36,1.36,0,0,1,1.06.78,1.31,1.31,0,0,1,.13.59A1.38,1.38,0,0,1,26.65,23.62ZM31,20.94H28.61l0-.06c-.05-.06-.09-.13-.15-.19l-.08-.08a1.85,1.85,0,0,0-.14-.14l-.09-.08L28,20.27l-.11-.06a.7.7,0,0,0-.17-.09l-.11-.06L27.39,20l-.12,0-.2-.05-.1,0-.32,0-.32,0-.1,0L26,20l-.11,0-.18.06-.12.06-.15.08-.12.08-.14.1-.11.08-.12.13-.1.09-.12.16-.07.09H23.16V12.37h4a.64.64,0,0,1,.52.27L31,17.2a.3.3,0,0,1,.05.16Z"/><path fill="#231f20" d="M1.52,14.32a2,2,0,0,0,4,0h5.9a2,2,0,0,0,4,0h2.14a1.05,1.05,0,0,0,1-1.06v-.85a1.59,1.59,0,0,0-.65-1.3,4.91,4.91,0,0,0-2.05-.87,2.36,2.36,0,0,0-.38,0h-1.1L10.27,7.65a1.58,1.58,0,0,0-.85-.24H4.59A3,3,0,0,0,2.15,8.63L.8,10.25a1.06,1.06,0,0,0-.8,1V13a1.34,1.34,0,0,0,1.34,1.34Zm2,.6a1.09,1.09,0,1,1,1.08-1.08A1.08,1.08,0,0,1,3.51,14.92Zm9.88,0a1.09,1.09,0,1,1,1.08-1.08A1.08,1.08,0,0,1,13.39,14.92ZM7.12,8.38h2.3a.59.59,0,0,1,.34.1l2.79,1.74H7.12Zm-4.21.85a2.1,2.1,0,0,1,1.68-.85H6.15v1.84H2.09ZM1,13V11.27a.09.09,0,0,1,.09-.08H15.71a3.73,3.73,0,0,1,1.63.69.65.65,0,0,1,.26.52v.85a.1.1,0,0,1-.09.09H15.38a1.43,1.43,0,0,0-.09-.27s0,0,0-.05a3.24,3.24,0,0,0-.17-.32L15,12.62l-.16-.2-.1-.09c-.06-.06-.12-.1-.18-.15l-.12-.08L14.26,12l-.13-.06-.24-.08-.12,0a2.33,2.33,0,0,0-.38,0,2.45,2.45,0,0,0-.39,0l-.12,0-.24.08-.13.06-.21.11-.11.08-.18.15-.1.09a1.63,1.63,0,0,0-.17.2l-.06.09a2,2,0,0,0-.18.32l0,.05-.09.27H5.5a1.43,1.43,0,0,0-.09-.27.43.43,0,0,1,0-.05,2,2,0,0,0-.18-.32l-.07-.09a1.56,1.56,0,0,0-.16-.2l-.1-.09-.18-.15-.12-.08L4.39,12l-.13-.06L4,11.85l-.12,0a2.58,2.58,0,0,0-.39,0,2.58,2.58,0,0,0-.39,0l-.11,0-.25.08L2.63,12l-.2.11-.12.08-.18.15-.1.09c-.06.06-.11.13-.17.2l-.06.09a2,2,0,0,0-.18.32s0,0,0,.05a1.43,1.43,0,0,0-.09.27H1.34A.37.37,0,0,1,1,13Z"/></svg>