<svg xmlns="http://www.w3.org/2000/svg" width="48" height="48" viewBox="0 0 12.7 12.7"><path fill-rule="evenodd" d="M6 3C4.3552936 3 3 4.3553008 3 6l-.00391 26.003906c0 1.334635 2.0019531 1.334635 2.0019531 0L5 6C5 5.4287622 5.4287656 5 6 5h28c.571235 0 1 .4287622 1 1v18c-.01912 1.352313 2.019116 1.352313 2 0V6C37 4.3553008 35.644707 3 34 3zm6 8c-.552285 0-1 .447715-1 1 0 .552285.447715 1 1 1 .552285 0 1-.447715 1-1 0-.552285-.447715-1-1-1zm3.900391.002c-1.303147.09093-1.210169 2.033912.0957 2H28c1.304853-.02818 1.304853-1.971824 0-2H15.996094c-.03188-.0015-.06382-.0015-.0957 0zM12 17c-.552285 0-1 .447715-1 1 0 .552285.447715 1 1 1 .552285 0 1-.447715 1-1 0-.552285-.447715-1-1-1zm16.109375 0c-.0365-.000695-.07302.000615-.109375.0039H15.996094c-.03188-.0015-.06382-.0015-.0957 0-1.226838.15243-1.140094 1.958061.0957 1.992188H28C29.373343 19.117384 29.487748 17.029495 28.109375 17zm-12.113281 5.998047c-1.304853.02818-1.304853 1.971824 0 2H28c1.362434.02942 1.362434-2.029419 0-2zM12 23c-.552285 0-1 .447715-1 1 0 .552285.447715 1 1 1 .552285 0 1-.447715 1-1 0-.552285-.447715-1-1-1zm0 6c-.552285 0-1 .447715-1 1 0 .552285.447715 1 1 1 .552285 0 1-.447715 1-1 0-.552285-.447715-1-1-1zm3.996094 0c-1.362434-.02942-1.362434 2.029419 0 2h10.001953c1.362434.02942 1.362434-2.029419 0-2zM12 35c-.552285 0-1 .447715-1 1 0 .552285.447715 1 1 1 .552285 0 1-.447715 1-1 0-.552285-.447715-1-1-1zm3.900391 0c-1.334635.0638-1.238929 2.065755.0957 2.001953h8.001953c1.334635 0 1.334635-2.001953 0-2.001953h-8.001953c-.03188-.0015-.06382-.0015-.0957 0zM3.9863281 35.982422c-.5561461.0054-1.0010662.463464-.9902343 1.019531L3 42c0 1.644699 1.355294 3 3 3h20c1.352313.01912 1.352313-2.019116 0-2H6C5.4287652 43 5 42.571238 5 42l-.00195-4.998047c.011009-.5645-.4471504-1.026198-1.0117188-1.019531zM36.001953 26.998047C31.043235 26.998047 27.003907 31.039307 27.003906 35.998047 27.003906 40.956749 31.043235 45.003906 36.001953 45.003906 40.960672 45.003906 45 40.956749 45 35.998047 45 31.039307 40.960672 26.998047 36.001953 26.998047zM36.001953 29C39.879791 29 43 32.120214 43 35.998047 43 39.87588 39.879791 43.001953 36.001953 43.001953 32.124115 43.001953 29.003906 39.87588 29.003906 35.998047 29.003906 32.120214 32.124115 29 36.001953 29zM39.160156 32.875A1.0001001 1.0001001 0 0 0 38.474609 33.177734L34.939453 36.712891 33.529297 35.296875A1.0021986 1.0021986 0 1 0 32.111328 36.712891L34.230469 38.832031A1.0001001 1.0001001 0 0 0 35.646484 38.832031L39.892578 34.59375A1.0001001 1.0001001 0 0 0 39.160156 32.875z" color="#000" font-family="sans-serif" font-weight="400" overflow="visible" paint-order="stroke fill markers" transform="scale(.26458)" style="line-height:normal;font-variant-ligatures:normal;font-variant-position:normal;font-variant-caps:normal;font-variant-numeric:normal;font-variant-alternates:normal;font-feature-settings:normal;text-indent:0;text-align:start;text-decoration-line:none;text-decoration-style:solid;text-decoration-color:#000;text-transform:none;text-orientation:mixed;shape-padding:0;isolation:auto;mix-blend-mode:normal"/></svg>