<svg xmlns="http://www.w3.org/2000/svg" enable-background="new 0 0 64 64" viewBox="0 0 64 64"><path d="M62 7.2c.6 0 1-.4 1-1V3.9C63 2.2 61.8 1 60.1 1H58c-1.6 0-2.9 1.3-2.9 2.9V5c-.9 0-1.7-.2-2.5-.4l-16-3.5c-1.7-.3-3.5-.1-5.1.6l-9 4.2C22 6.1 21.8 6.7 22 7.2c.3.8 1.2.5 1.3.5l9-4.2c1.3-.5 2.6-.7 3.9-.4l16 3.5C53 6.8 54 6.9 55.1 7v14c-1.6-.1-5.2 1.3-5.2 1.3-1.2.4-2.6.6-4.1.6h-8.7c-1.1 0-2-.9-2-2s.9-2 2-2h4c1.4 0 2.6-.9 3-2.2.4-1.3-.1-2.7-1.2-3.4l-6.2-4.2C36.5 9.1 36.3 9 36.1 9h-28c-1.7 0-3 1.3-3 3v14c0 .6.4 1 1 1s1-.4 1-1V12c0-.6.4-1 1-1h27.7l6 4c.6.4.5 1 .4 1.2-.1.2-.3.8-1.1.8h-4c-2.2 0-4 1.8-4 4s1.8 4 4 4h8.7c1.7 0 3.3-.3 4.7-.8 0 0 3.4-1.4 4.6-1.2v1.1c0 1.6 1.3 2.9 2.9 2.9h2.1c1.6 0 2.9-1.3 2.9-2.9V10c0-.6-.4-1-1-1s-1 .4-1 1v14.1c0 .4-.3.9-.9.9H58c-.4 0-.9-.3-.9-.9V3.9C57.1 3.5 57.4 3 58 3h2.1C60.6 3 61 3.4 61 3.9v2.3C61 6.7 61.4 7.2 62 7.2zM46.1 31c.6 0 1-.4 1-1 0-.6.4-1 1-1 .6 0 1-.4 1-1s-.4-1-1-1c-1.3 0-2.4.8-2.8 2h-5.2c-.6 0-1 .4-1 1s.4 1 1 1H46.1z"/><path d="M38 14c0-.6-.4-1-1-1H12.1c-.6 0-1 .4-1 1 0 .6-.4 1-1 1-.6 0-1 .4-1 1v12c0 .6.4 1 1 1 .6 0 1 .4 1 1 0 .6.4 1 1 1h24.1c.6 0 1-.4 1-1s-.4-1-1-1H12.9c-.3-.9-1-1.5-1.8-1.8V16.8c.9-.3 1.5-1 1.8-1.8H37C37.5 15 38 14.6 38 14zM16.9 44c-1.7-.6-3.4-.7-5.1-.2-.5.1-.9.7-.7 1.2.1.5.7.9 1.2.7 1.3-.3 2.5-.3 3.9.2l1.5.5c.1 0 1 .2 1.3-.6.2-.5-.1-1.1-.6-1.3L16.9 44z"/><path d="M55.3,41.8c-1-0.8-2.3-1-3.5-0.7c0,0-14.8,5.9-14.8,5.9c-0.2-2.1-1.8-3.6-4-3.6h-4.8c-1.5,0-2.9-0.2-4.1-0.7l-7.3-2.4
	c-1.9-0.7-3.9-0.7-5.8,0l-2.1,0.7V40c0-1.7-1.3-3-3-3h-2c-1.7,0-3,1.3-3,3v2c0,0.6,0.4,1,1,1s1-0.4,1-1v-2c0-0.6,0.4-1,1-1h2
	c0.6,0,1,0.4,1,1v20c0,0.6-0.4,1-1,1h-2c-0.6,0-1-0.4-1-1V45.6c0-0.6-0.4-1-1-1s-1,0.4-1,1V60c0,1.7,1.3,3,3,3h2c1.7,0,3-1.3,3-3
	v-1.3c0,0,4.4-2,9.3-0.5l7.5,2.2c1,0.2,4.8,0.8,8.2-0.6c0,0,6.3-3.4,6.3-3.4c0.5-0.3,0.7-0.9,0.4-1.4c-0.3-0.5-0.9-0.7-1.4-0.4
	L33.4,58c-2.2,0.9-4.6,1.1-6.9,0.5L19,56.3c-4.9-1.5-9.9,0.3-9.9,0.3V43.2l2.7-1c1.5-0.5,2.9-0.5,4.5,0l7.3,2.4
	c1.4,0.5,3,0.8,4.7,0.8h4.8c1.1,0,2,0.9,2,2s-0.9,2-2,2h-11c-0.6,0-1,0.4-1,1s0.4,1,1,1h11c1.5,0,2.8-0.8,3.5-2l15.8-6.3
	c1.5-0.5,2.5,1.3,2.5,2c0,0.8-0.5,1.6-1.3,1.9L49,49.5c-0.5,0.3-0.7,0.9-0.4,1.4c0.4,0.7,1.2,0.5,1.4,0.4l4.6-2.5
	c1.4-0.7,2.4-2.1,2.4-3.8C56.9,43.8,56.3,42.6,55.3,41.8z"/><path d="M45.5 51.4l-1.9 1c-.5.3-.7.9-.4 1.4.4.7 1.2.5 1.4.4l1.9-1c.5-.3.7-.9.4-1.4C46.6 51.3 46 51.1 45.5 51.4zM15.1 19h1c.6 0 1-.4 1-1s-.4-1-1-1h-1.3c-1 0-1.7.7-1.7 1.7V20c0 .6.4 1 1 1s1-.4 1-1V19zM14.1 23c-.6 0-1 .4-1 1v2c0 .6.4 1 1 1s1-.4 1-1v-2C15.1 23.4 14.7 23 14.1 23zM8.1 35h42c1.7 0 3-1.3 3-3v-6c0-.6-.4-1-1-1s-1 .4-1 1v6c0 .6-.4 1-1 1h-42c-.6 0-1-.4-1-1v-2c0-.6-.4-1-1-1s-1 .4-1 1v2C5.1 33.7 6.4 35 8.1 35z"/></svg>