<svg xmlns="http://www.w3.org/2000/svg" width="32" height="32" enable-background="new 0 0 32 32" viewBox="0 0 32 32"><path d="M15.998,0.1C7.231,0.1,0.1,7.234,0.1,16.003C0.1,24.769,7.231,31.9,15.998,31.9c8.769,0,15.902-7.132,15.902-15.897
		C31.9,7.234,24.766,0.1,15.998,0.1z M15.998,31.1C7.673,31.1,0.9,24.327,0.9,16.003C0.9,7.675,7.673,0.9,15.998,0.9
		C24.325,0.9,31.1,7.675,31.1,16.003C31.1,24.327,24.325,31.1,15.998,31.1z"/><path d="M16 15.952c2.517 0 4.565-2.048 4.565-4.564 0-2.519-2.048-4.567-4.565-4.567-2.518 0-4.566 2.049-4.566 4.567C11.434 13.904 13.482 15.952 16 15.952zM16 7.621c2.076 0 3.765 1.689 3.765 3.767 0 2.075-1.689 3.764-3.765 3.764-2.077 0-3.766-1.688-3.766-3.764C12.234 9.311 13.923 7.621 16 7.621zM16 17.175c-4.194 0-7.607 3.412-7.607 7.606 0 .221.179.4.4.4s.4-.18.4-.4c0-3.753 3.054-6.806 6.807-6.806 3.753 0 6.806 3.053 6.806 6.806 0 .221.179.4.4.4s.4-.18.4-.4C23.606 20.587 20.194 17.175 16 17.175z"/></svg>